<?xml version="1.0" encoding="UTF-8"?>
<svg id="Layer_1" data-name="Layer 1" xmlns="http://www.w3.org/2000/svg" viewBox="0 0 2000 813.96">
  <defs>
    <style>
      .cls-1 {
        fill: #00c381;
      }

      .cls-2 {
        fill: #0062cc;
      }
    </style>
  </defs>
  <path class="cls-2" d="M1645.73,315.4c-4.45-5.06-11.22-7.6-20.29-7.6h-72.79c-9.07,0-16.98,2.54-23.7,7.6-6.73,5.07-11.34,11.28-13.84,18.64l-21.59,62.71c-2.63,7.36-1.7,13.57,2.82,18.64,4.52,5.07,11.31,7.6,20.39,7.6h72.79c9.07,0,16.94-2.53,23.6-7.6,6.66-5.06,11.31-11.28,13.94-18.64l21.58-62.71c2.5-7.36,1.53-13.57-2.92-18.64Zm-37.06,22.31l-19.15,55.35c-.41,1.39-1.47,2.08-3.18,2.08h-51.09c-1.71,0-2.36-.69-1.95-2.08l15.55-44.96-13.72-12.43h20.35c.12,0,.22-.04,.34-.04h51.09c1.71,0,2.29,.69,1.75,2.08Z"/>
  <path class="cls-2" d="M1346.26,307.8h-44.27l-29.6,85.26c-.41,1.39-1.47,2.08-3.18,2.08h-51.68c-1.71,0-2.36-.69-1.95-2.08l29.6-85.26h-38.66l-30.72,88.94c-2.63,7.36-1.7,13.57,2.82,18.64,4.52,5.07,11.31,7.6,20.39,7.6h75.36c9.07,0,16.61-2.53,22.62-7.6,6-5.06,10.32-11.28,12.96-18.64l28.94-83.79c4.36-3.08,7.38-5.15,7.38-5.15Z"/>
  <path class="cls-2" d="M1033.18,307.8h-44.26l-23.72,68.47-32.9-68.47h-38.66l-38.35,110.8c-3.76,2.65-6.28,4.38-6.28,4.38h43.43l23.72-68.46,34.87,68.46h36.69l38.08-110.02c4.36-3.08,7.38-5.16,7.38-5.16Z"/>
  <path class="cls-2" d="M1487.78,315.48c-4.46-5.12-11.23-7.68-20.3-7.68h-98.63l-38.29,110.63c-3.9,2.75-6.52,4.54-6.52,4.54h43.61l13.01-37.75h18.74l20.13,37.75h44.39l-23.88-37.75h.79c11.18,0,20.22-2.58,27.12-7.76,6.9-5.17,11.63-11.33,14.17-18.48l8.58-24.95c2.52-7.25,1.55-13.44-2.91-18.56Zm-37.07,22.23l-6.5,18.88c-.41,1.39-1.47,2.08-3.18,2.08h-51.09l3.9-11.34-12.87-11.66h16.89v-.04h51.11c1.71,0,2.29,.69,1.75,2.08Z"/>
  <path class="cls-2" d="M778.77,335.64h79.7l8.03-23.18c3.99-2.81,6.68-4.65,6.68-4.65h-110.1c-7.93,0-14.93,4.66-17.3,11.51l-33.79,98.03c-4.72,3.35-8.06,5.63-8.06,5.63h124.33l9.64-27.83h-79.7l3.25-9.4-9.59-8.68h24.81s58.6,0,58.6,0l8.07-23.35h-70.82l2.35-6.81-12.4-11.23h16.29v-.04Z"/>
  <path class="cls-2" d="M1186.07,307.8h-130.89l-9.63,27.83h29.82v.04h8.82v-.04h45.98c1.71,0,2.29,.69,1.75,2.08l-19.15,55.35c-.41,1.39-1.47,2.08-3.18,2.08h-45.96l14.65-42.38c3.73-2.63,6.24-4.35,6.24-4.35h-9.83s0,0,0,0h-33.56l-23.79,68.74c-4.85,3.44-8.31,5.81-8.31,5.81h103.75c9.07,0,16.94-2.53,23.6-7.6,6.66-5.06,11.31-11.28,13.94-18.64l28.85-84.12c4.11-2.9,6.91-4.82,6.91-4.82Z"/>
  <g>
    <polygon class="cls-1" points="635.5 505.47 645.63 476.19 609.9 476.19 599.77 505.47 635.5 505.47"/>
    <path class="cls-1" d="M517.94,307.8l-10.13,29.28h-35.75l10.13-29.28h-53l-68.64,197.67-10.55,30.47,51.9-30.47h162.12l10.13-29.28h35.75l10.13-29.28h35.74l48.15-139.11h-185.98Zm-52.17,152.11h-40.29s2.4-1.64,5.96-4.15l35.44-102.4h39.93s-2.2,1.51-5.49,3.82l-35.55,102.72Zm172.34-101.6l-7.21,20.8h-44.16v.04h-16.61l12.64,11.44-23.98,69.32h-40.36s2.44-1.67,6.05-4.22l26.5-76.58h-44.16l8.92-25.75h120.36s9.1,0,9.1,0c0,0-2.92,2-7.08,4.95Z"/>
  </g>
  <g>
    <path class="cls-2" d="M707.5,457.2h14.83c3.67,0,6.85,.62,9.54,1.86,2.69,1.24,4.74,3,6.16,5.27,1.41,2.27,2.12,4.94,2.12,8.02,0,4.3-.95,8.07-2.86,11.32-1.9,3.25-4.58,5.76-8.04,7.54-3.46,1.78-7.44,2.67-11.94,2.67h-17.13l7.34-36.68Zm10.01,30.91c3.21,0,6.01-.66,8.38-1.99,2.38-1.33,4.2-3.15,5.48-5.48,1.27-2.32,1.91-4.95,1.91-7.89s-1-5.47-2.99-7.2c-1.99-1.73-4.89-2.59-8.7-2.59h-8.44l-5.03,25.15h9.38Z"/>
    <path class="cls-2" d="M775.77,462.91l-1.89,9.53h17.76l-1.1,5.61h-17.82l-1.99,10.11h20.75l-1.15,5.71h-27.51l7.34-36.68h26.77l-1.15,5.71h-20.02Z"/>
    <path class="cls-2" d="M857.61,457.2l-23.31,36.68h-6.71l-8.64-36.68h7.02l6.55,28.19,18.02-28.19h7.07Z"/>
    <path class="cls-2" d="M936.46,486.07l3.51,4.19-4.35,4.19-3.51-4.14c-3.7,2.72-7.83,4.09-12.37,4.09-2.48,0-4.66-.37-6.55-1.1-1.89-.74-3.35-1.77-4.4-3.12-1.05-1.34-1.57-2.93-1.57-4.74,0-2.51,.88-4.73,2.65-6.65,1.76-1.92,4.43-3.74,7.99-5.45-1.68-2.2-2.51-4.4-2.51-6.6,0-2.03,.51-3.79,1.52-5.29,1.01-1.5,2.39-2.66,4.14-3.46,1.75-.8,3.7-1.2,5.87-1.2,2.76,0,4.99,.64,6.68,1.91,1.69,1.28,2.54,3.03,2.54,5.27s-.78,4.12-2.33,5.76c-1.55,1.64-3.94,3.23-7.15,4.77l6.34,7.49c1.26-1.75,2.38-3.84,3.35-6.29l5.03,1.73c-1.36,3.46-2.99,6.34-4.87,8.65Zm-7.75,.21l-7.81-9.28c-2.51,1.19-4.33,2.34-5.45,3.46-1.12,1.12-1.68,2.41-1.68,3.88s.57,2.57,1.7,3.43c1.13,.86,2.77,1.28,4.9,1.28,2.97,0,5.74-.93,8.33-2.78Zm-5.89-23.55c-.96,.86-1.44,1.98-1.44,3.38,0,.7,.17,1.41,.5,2.15,.33,.74,.9,1.61,1.7,2.62,2.65-1.19,4.47-2.24,5.45-3.17,.98-.93,1.47-2,1.47-3.22,0-.87-.34-1.6-1.02-2.17-.68-.58-1.62-.86-2.8-.86-1.61,0-2.89,.43-3.85,1.28Z"/>
    <path class="cls-2" d="M1007.37,492.43c-2.64-1.31-4.66-3.14-6.05-5.5-1.4-2.36-2.09-5.09-2.09-8.2,0-4.12,.93-7.86,2.8-11.21,1.87-3.35,4.51-6,7.94-7.94,3.42-1.94,7.34-2.91,11.74-2.91,3.63,0,6.77,.66,9.4,1.97,2.64,1.31,4.65,3.14,6.05,5.5s2.1,5.09,2.1,8.2c0,4.12-.93,7.86-2.8,11.21-1.87,3.35-4.51,6-7.94,7.94-3.42,1.94-7.34,2.91-11.74,2.91-3.63,0-6.77-.65-9.41-1.97Zm17.87-6.13c2.29-1.41,4.05-3.32,5.29-5.71,1.24-2.39,1.86-5,1.86-7.83,0-3.07-.99-5.53-2.96-7.36-1.97-1.83-4.76-2.75-8.36-2.75-2.97,0-5.6,.71-7.89,2.12-2.29,1.41-4.04,3.32-5.27,5.71-1.22,2.39-1.83,5-1.83,7.83,0,3.08,.98,5.53,2.93,7.36,1.96,1.83,4.73,2.75,8.33,2.75,2.97,0,5.6-.71,7.89-2.12Z"/>
    <path class="cls-2" d="M1093.72,460.11c2.43,1.94,3.64,4.66,3.64,8.15,0,3.11-.71,5.79-2.12,8.04-1.41,2.25-3.44,3.98-6.08,5.19-2.64,1.2-5.74,1.81-9.3,1.81h-8.96l-2.15,10.58h-6.81l7.34-36.68h14.15c4.43,0,7.87,.97,10.3,2.91Zm-5.92,15.2c1.8-1.48,2.7-3.62,2.7-6.42,0-1.96-.67-3.43-2.02-4.43-1.34-1-3.27-1.49-5.79-1.49h-7.75l-2.88,14.57h8.07c3.32,0,5.88-.74,7.68-2.23Z"/>
    <path class="cls-2" d="M1123.24,493.19c-2.59-.8-4.61-1.83-6.08-3.09l2.88-5.35c1.54,1.22,3.36,2.19,5.47,2.91,2.11,.72,4.27,1.07,6.47,1.07,2.69,0,4.83-.46,6.42-1.39,1.59-.93,2.38-2.19,2.38-3.8,0-.91-.32-1.67-.97-2.28-.65-.61-1.45-1.11-2.41-1.49-.96-.38-2.3-.82-4.01-1.31-2.38-.7-4.3-1.37-5.76-2.02-1.47-.65-2.73-1.62-3.77-2.91-1.05-1.29-1.57-2.97-1.57-5.03,0-2.38,.67-4.45,2.02-6.24,1.34-1.78,3.22-3.16,5.63-4.14,2.41-.98,5.19-1.47,8.33-1.47,2.37,0,4.63,.27,6.76,.81,2.13,.54,3.96,1.3,5.5,2.28l-2.67,5.4c-1.36-.91-2.9-1.61-4.61-2.1-1.71-.49-3.49-.73-5.35-.73-2.72,0-4.88,.5-6.47,1.49-1.59,1-2.38,2.31-2.38,3.96,0,.94,.33,1.73,1,2.36,.66,.63,1.47,1.13,2.41,1.49,.94,.37,2.32,.83,4.14,1.39,2.3,.66,4.19,1.31,5.66,1.94,1.47,.63,2.71,1.55,3.75,2.78,1.03,1.22,1.55,2.81,1.55,4.77,0,2.41-.67,4.51-2.02,6.29-1.34,1.78-3.25,3.16-5.71,4.14-2.46,.98-5.28,1.47-8.46,1.47-2.83,0-5.54-.4-8.12-1.2Z"/>
    <path class="cls-2" d="M1212.89,457.2h6.81l-6.18,30.91h19.18l-1.15,5.76h-25.99l7.34-36.68Z"/>
    <path class="cls-2" d="M1269.27,462.91l-1.89,9.53h17.76l-1.1,5.61h-17.81l-1.99,10.11h20.75l-1.15,5.71h-27.51l7.34-36.68h26.77l-1.15,5.71h-20.01Z"/>
    <path class="cls-2" d="M1336.65,485.39h-18.44l-5.29,8.49h-7.28l23.84-36.68h6.76l9.12,36.68h-6.76l-1.94-8.49Zm-1.26-5.35l-3.72-16.14-10.11,16.14h13.83Z"/>
    <path class="cls-2" d="M1402.14,477.19c-1.89,2.43-4.52,4.11-7.91,5.06l6.55,11.63h-7.23l-6.02-10.74h-9.12l-2.1,10.74h-6.86l7.34-36.68h14.25c4.44,0,7.87,.97,10.3,2.91,2.43,1.94,3.64,4.66,3.64,8.15s-.94,6.51-2.83,8.93Zm-6.76-1.89c1.82-1.48,2.72-3.62,2.72-6.42,0-1.96-.67-3.43-2.02-4.43-1.34-1-3.27-1.49-5.79-1.49h-7.81l-2.93,14.57h8.12c3.32,0,5.89-.74,7.7-2.23Z"/>
    <path class="cls-2" d="M1467,457.2l-7.34,36.68h-5.61l-15.04-25.67-5.13,25.67h-6.76l7.34-36.68h5.61l15.09,25.67,5.08-25.67h6.76Z"/>
    <path class="cls-2" d="M1496.29,457.2h6.81l-7.34,36.68h-6.81l7.34-36.68Z"/>
    <path class="cls-2" d="M1564.93,457.2l-7.34,36.68h-5.61l-15.04-25.67-5.13,25.67h-6.76l7.34-36.68h5.61l15.09,25.67,5.08-25.67h6.76Z"/>
    <path class="cls-2" d="M1615.7,475.12h6.44l-2.99,14.78c-1.85,1.43-3.96,2.54-6.31,3.33-2.36,.79-4.81,1.18-7.36,1.18-3.6,0-6.74-.65-9.43-1.97-2.69-1.31-4.76-3.14-6.21-5.5-1.45-2.36-2.18-5.09-2.18-8.2,0-4.12,.94-7.86,2.83-11.21,1.89-3.35,4.56-6,8.02-7.94,3.46-1.94,7.44-2.91,11.95-2.91,3.32,0,6.22,.52,8.7,1.55,2.48,1.03,4.49,2.52,6.02,4.48l-4.93,4.09c-1.19-1.43-2.6-2.48-4.24-3.14-1.64-.66-3.6-1-5.87-1-3.11,0-5.84,.69-8.2,2.07-2.36,1.38-4.18,3.26-5.47,5.63-1.29,2.38-1.94,5.03-1.94,7.96,0,3.11,1.01,5.57,3.04,7.39,2.03,1.82,4.93,2.73,8.7,2.73,2.55,0,4.93-.58,7.13-1.73l2.31-11.58Z"/>
  </g>
</svg>